<?xml version="1.0" encoding="utf-8"?>
<!-- Generator: Adobe Illustrator 27.9.0, SVG Export Plug-In . SVG Version: 6.00 Build 0)  -->
<svg version="1.1" id="Слой_1" xmlns="http://www.w3.org/2000/svg" xmlns:xlink="http://www.w3.org/1999/xlink" x="0px" y="0px"
	 viewBox="0 0 371.39 121.71" style="enable-background:new 0 0 371.39 121.71;" xml:space="preserve">
<style type="text/css">
	.st0{fill:#F49723;}
	.st1{fill:#F2F1DD;}
	.st2{fill:#1D1D1B;}
</style>
<g>
	<g>
		<path class="st0" d="M360.35,121.71H11.05C4.97,121.74,0.03,116.84,0,110.76c0-0.02,0-0.03,0-0.05V11.04c0-6.08,4.92-11,11-11
			c0.02,0,0.03,0,0.05,0h349.3c6.08,0,11,4.92,11,11l0,0v99.63c0,6.08-4.92,11-11,11l0,0"/>
		<path class="st1" d="M158.82,30.1c0.28-0.25,0.63-0.42,1-0.5c0.33-0.07,0.66-0.11,1-0.11h5.34c0.38-0.01,0.76,0.07,1.1,0.23
			c0.3,0.15,0.57,0.37,0.78,0.63c0.22,0.26,0.39,0.56,0.51,0.88c0.13,0.33,0.26,0.67,0.37,1l0.75,3.11
			c0.44-0.85,1.02-1.61,1.72-2.26c0.88-0.84,1.86-1.55,2.93-2.12c1.29-0.68,2.65-1.21,4.06-1.57c1.68-0.43,3.4-0.64,5.13-0.62
			c2.49-0.04,4.96,0.49,7.21,1.56c2.08,1,3.91,2.45,5.38,4.23c1.51,1.85,2.66,3.98,3.36,6.27c0.78,2.48,1.18,5.06,1.16,7.66v23.2
			c0.04,0.72-0.17,1.42-0.59,2c-0.48,0.5-1.17,0.75-1.86,0.69h-8.18c-0.73,0.08-1.47-0.1-2.09-0.51c-0.44-0.57-0.64-1.29-0.56-2v-23
			c0-1-0.23-2-0.69-2.89c-0.46-0.91-1.08-1.72-1.83-2.41c-0.75-0.69-1.62-1.25-2.56-1.64c-0.93-0.4-1.92-0.6-2.93-0.61
			c-0.9,0.01-1.78,0.2-2.6,0.57c-0.9,0.39-1.72,0.92-2.44,1.58c-0.75,0.68-1.39,1.48-1.88,2.37c-0.51,0.92-0.81,1.95-0.87,3v23
			c0,0.41-0.08,0.82-0.23,1.2c-0.13,0.37-0.37,0.7-0.69,0.93c-0.27,0.17-0.56,0.3-0.86,0.39c-0.31,0.07-0.62,0.11-0.94,0.1h-8
			c-1.35,0.22-2.63-0.69-2.85-2.04c-0.04-0.22-0.04-0.45-0.02-0.68v-39.6c0-0.43,0.1-0.86,0.3-1.24c0.19-0.36,0.48-0.67,0.83-0.88
			L158.82,30.1z"/>
		<path class="st1" d="M6.35,31.59c-0.03-0.57,0.15-1.13,0.51-1.57c0.41-0.41,0.97-0.63,1.55-0.59h29.93
			c2.06-0.01,4.12,0.29,6.09,0.89c1.85,0.58,3.62,1.4,5.25,2.46c1.59,1.06,3.04,2.32,4.31,3.75c2.53,2.87,4.34,6.29,5.29,10
			c1.16,4.6,0.87,9.45-0.82,13.89c-0.99,2.64-2.45,5.07-4.33,7.17c-1.9,2.11-4.19,3.84-6.75,5.08c-2.71,1.32-5.69,2-8.71,2H24.48
			v22.29c0,1.34-0.72,2-2.16,2H8.41c-0.55,0.03-1.08-0.15-1.5-0.5c-0.41-0.4-0.61-0.95-0.56-1.52V31.59z M41.62,52.11
			c0-0.96-0.17-1.91-0.49-2.81c-0.32-0.92-0.8-1.77-1.43-2.51c-0.63-0.74-1.4-1.35-2.27-1.8c-0.93-0.48-1.96-0.72-3-0.71H24.5v15.65
			h9.93c1.04,0.01,2.07-0.22,3-0.68c0.87-0.42,1.64-1.02,2.27-1.76c0.62-0.73,1.1-1.57,1.41-2.48c0.33-0.93,0.49-1.91,0.49-2.9"/>
		<path class="st1" d="M63.58,51.98c-0.01-2.11,0.27-4.22,0.83-6.26c1.05-3.88,3.11-7.41,5.95-10.25c1.4-1.4,2.97-2.61,4.69-3.6
			c1.75-1.01,3.63-1.78,5.58-2.3c2.04-0.55,4.14-0.82,6.25-0.81c12.75-0.06,23.13,10.22,23.19,22.97c0,0.08,0,0.17,0,0.25
			c0.01,2.11-0.27,4.21-0.83,6.25c-0.54,1.95-1.33,3.83-2.34,5.58c-3.04,5.22-8.01,9.03-13.84,10.61c-2.01,0.55-4.09,0.82-6.18,0.82
			c-2.11,0.01-4.21-0.27-6.25-0.82c-5.85-1.57-10.84-5.39-13.88-10.62c-1.02-1.75-1.81-3.63-2.34-5.58
			c-0.56-2.04-0.84-4.14-0.83-6.25 M76.5,51.97c-0.01,1.49,0.23,2.97,0.73,4.37c0.45,1.3,1.14,2.5,2.05,3.53c0.9,1,2,1.8,3.22,2.35
			c1.34,0.6,2.8,0.89,4.27,0.87c1.43,0.02,2.85-0.28,4.16-0.87c1.2-0.55,2.28-1.35,3.15-2.35c0.89-1.03,1.57-2.23,2-3.53
			c0.93-2.82,0.93-5.87,0-8.69c-0.44-1.32-1.12-2.54-2-3.61c-0.86-1.04-1.93-1.88-3.15-2.46c-1.3-0.61-2.72-0.92-4.16-0.9
			c-1.47-0.02-2.93,0.28-4.27,0.9c-1.24,0.58-2.33,1.42-3.22,2.46c-0.9,1.07-1.59,2.29-2.05,3.61C76.74,49.04,76.49,50.5,76.5,51.97
			"/>
		<path class="st1" d="M117.12,32.08c-0.01-0.4,0.07-0.8,0.24-1.16c0.16-0.32,0.38-0.6,0.66-0.82c0.28-0.21,0.59-0.37,0.92-0.48
			c0.32-0.1,0.66-0.15,1-0.16h5.34c0.53-0.03,1.04,0.17,1.42,0.54c0.38,0.39,0.68,0.84,0.9,1.34c0.27,0.59,0.49,1.19,0.66,1.81
			c0.19,0.65,0.41,1.29,0.67,1.91c0.71-0.78,1.41-1.55,2.11-2.3c0.68-0.74,1.43-1.41,2.25-2c0.81-0.59,1.69-1.08,2.63-1.43
			c1.05-0.38,2.16-0.57,3.28-0.55c1.15-0.01,2.29,0.08,3.42,0.28c0.97,0.18,1.93,0.46,2.85,0.83c0.93,0.39,1.82,0.85,2.67,1.4
			c0.89,0.57,1.85,1.23,2.89,2c0.85,0.36,1.44,1.17,1.52,2.09c-0.04,0.65-0.25,1.27-0.6,1.81l-3.23,5.49
			c-0.5,0.84-1.39,1.36-2.37,1.38c-0.55-0.02-1.09-0.15-1.59-0.39c-0.9-0.91-1.95-1.66-3.1-2.22c-1.13-0.5-2.36-0.74-3.59-0.72
			c-0.83-0.01-1.65,0.12-2.43,0.39c-0.69,0.25-1.33,0.62-1.89,1.1c-0.6,0.5-1.14,1.07-1.6,1.7c-0.49,0.66-1,1.39-1.48,2.19v25.64
			c0.05,0.73-0.19,1.44-0.66,2c-0.61,0.51-1.4,0.76-2.19,0.67h-8c-1.32,0.2-2.55-0.71-2.75-2.03c-0.03-0.23-0.04-0.46-0.01-0.69
			L117.12,32.08z"/>
		<path class="st2" d="M222.63,34.19c0.51-0.75,1.14-1.43,1.85-2c0.85-0.67,1.76-1.25,2.73-1.73c1.09-0.53,2.24-0.94,3.42-1.23
			c1.31-0.33,2.65-0.49,4-0.48c2.43-0.06,4.83,0.47,7,1.56c1.94,1,3.61,2.45,4.88,4.23c1.34,1.89,2.31,4.02,2.87,6.27
			c0.64,2.5,0.96,5.08,0.94,7.66v23.2c0.05,0.71-0.16,1.42-0.58,2c-0.48,0.5-1.17,0.75-1.86,0.69h-8.18
			c-0.73,0.08-1.47-0.1-2.09-0.51c-0.45-0.56-0.66-1.28-0.57-2V48.51c0.01-0.97-0.19-1.94-0.58-2.83c-0.4-0.85-0.96-1.62-1.64-2.26
			c-0.67-0.66-1.45-1.18-2.32-1.53c-0.89-0.37-1.85-0.55-2.81-0.55c-0.86,0.01-1.71,0.18-2.5,0.52c-0.81,0.35-1.55,0.84-2.19,1.45
			c-0.67,0.65-1.22,1.41-1.63,2.25c-0.45,0.91-0.71,1.89-0.76,2.9v23.37c0,0.41-0.08,0.82-0.23,1.2c-0.13,0.37-0.37,0.69-0.69,0.93
			c-0.27,0.17-0.56,0.3-0.87,0.39c-0.31,0.07-0.62,0.11-0.94,0.1h-8c-1.35,0.22-2.63-0.69-2.85-2.04c-0.04-0.22-0.04-0.45-0.02-0.68
			V18.79c-0.03-0.71,0.21-1.41,0.67-1.95c0.6-0.55,1.4-0.82,2.2-0.74h8c0.64,0.03,1.27,0.23,1.81,0.57
			c0.32,0.23,0.56,0.55,0.69,0.92c0.14,0.36,0.22,0.74,0.23,1.13L222.63,34.19z"/>
		<path class="st2" d="M300.52,73.83c-0.28,0.25-0.63,0.42-1,0.5c-0.33,0.07-0.66,0.1-1,0.1h-5.35c-0.38,0.01-0.76-0.07-1.1-0.23
			c-0.3-0.15-0.57-0.35-0.78-0.61c-0.22-0.27-0.4-0.57-0.53-0.89c-0.14-0.32-0.26-0.66-0.35-1l-0.75-3.46
			c-0.45,0.87-1.05,1.65-1.77,2.31c-0.91,0.88-1.94,1.63-3.06,2.24c-2.86,1.58-6.09,2.4-9.36,2.37c-2.48,0.05-4.93-0.49-7.16-1.56
			c-2.04-1.01-3.84-2.46-5.25-4.25c-1.47-1.87-2.57-4-3.24-6.28c-0.71-2.49-1.05-5.06-1-7.65V32.19c-0.04-0.71,0.16-1.42,0.58-2
			c0.48-0.5,1.17-0.75,1.86-0.69h8.18c0.74-0.08,1.48,0.11,2.09,0.52c0.45,0.56,0.66,1.28,0.57,2v23.07c-0.01,1,0.19,1.98,0.58,2.9
			c0.38,0.89,0.92,1.7,1.58,2.4c0.66,0.7,1.44,1.26,2.32,1.65c0.88,0.4,1.84,0.61,2.81,0.6c0.93-0.01,1.86-0.15,2.76-0.42
			c0.99-0.28,1.92-0.73,2.76-1.33c0.87-0.61,1.59-1.41,2.13-2.32c0.59-1.04,0.88-2.21,0.85-3.4v-23c0-0.41,0.08-0.83,0.23-1.21
			c0.13-0.37,0.37-0.69,0.69-0.92c0.27-0.18,0.56-0.31,0.87-0.39c0.3-0.08,0.62-0.11,0.93-0.11h8c1.37-0.21,2.64,0.73,2.85,2.1
			c0.03,0.21,0.04,0.42,0.01,0.63v39.62c0.01,0.43-0.1,0.86-0.3,1.24c-0.19,0.37-0.48,0.68-0.83,0.89L300.52,73.83z"/>
		<path class="st2" d="M324.25,95.6c-0.25,0.54-0.47,1-0.64,1.42c-0.14,0.36-0.34,0.69-0.57,1c-0.21,0.27-0.48,0.47-0.79,0.61
			c-0.41,0.17-0.84,0.24-1.28,0.22h-8.43c-2.27,0-3.4-1.09-3.4-3.28V31.99c-0.01-0.45,0.09-0.9,0.27-1.32
			c0.18-0.38,0.43-0.72,0.73-1c0.29-0.28,0.63-0.5,1-0.66c0.36-0.15,0.74-0.24,1.13-0.24h9.66c0.95-0.05,1.87,0.29,2.56,0.94
			c0.61,0.61,0.95,1.44,0.93,2.3v17.71c0.79-0.84,1.65-1.63,2.56-2.34c0.93-0.72,1.93-1.32,3-1.81c1.12-0.52,2.3-0.91,3.51-1.17
			c1.4-0.3,2.83-0.44,4.26-0.43c3.66-0.04,7.3,0.69,10.66,2.15c3.17,1.38,6.03,3.4,8.39,5.92c2.38,2.58,4.24,5.58,5.49,8.86
			c2.64,7.1,2.64,14.9,0,22c-1.24,3.28-3.11,6.29-5.49,8.87c-2.36,2.53-5.22,4.56-8.39,5.95c-3.36,1.47-6.99,2.21-10.66,2.17
			c-1.4,0-2.8-0.18-4.15-0.56c-1.29-0.36-2.54-0.84-3.73-1.45c-1.13-0.56-2.21-1.23-3.21-2c-0.92-0.7-1.8-1.46-2.62-2.28
			L324.25,95.6z M349.93,71.88c0-1.77-0.29-3.52-0.88-5.19c-0.55-1.59-1.39-3.06-2.49-4.34c-1.07-1.26-2.38-2.28-3.87-3
			c-1.59-0.74-3.32-1.11-5.07-1.09c-1.81-0.01-3.6,0.36-5.26,1.09c-1.6,0.71-3.03,1.73-4.23,3c-1.21,1.26-2.17,2.73-2.84,4.34
			c-0.68,1.65-1.02,3.41-1,5.19v0.6c0.16,3.44,1.62,6.69,4.09,9.09c1.2,1.16,2.62,2.08,4.17,2.7c1.62,0.67,3.36,1.01,5.11,1
			c3.4,0.07,6.66-1.34,8.94-3.87c1.1-1.23,1.95-2.68,2.49-4.24c0.59-1.69,0.89-3.47,0.88-5.26"/>
		<path class="st2" d="M52.36,111.05c-1.61,0.02-3.21-0.27-4.71-0.85c-1.39-0.54-2.67-1.36-3.74-2.4c-1.06-1.04-1.89-2.28-2.46-3.65
			c-1.19-2.93-1.19-6.22,0-9.15c0.57-1.37,1.42-2.61,2.48-3.65c1.08-1.04,2.36-1.86,3.76-2.4c3-1.11,6.31-1.11,9.31,0
			c1.4,0.52,2.65,1.37,3.65,2.47l-1.52,1.51c-0.86-0.89-1.9-1.57-3.06-2c-2.39-0.86-5.01-0.84-7.39,0.06
			c-2.25,0.92-4.05,2.69-5,4.93c-0.97,2.39-0.97,5.06,0,7.45c0.46,1.12,1.14,2.14,2,3c0.85,0.86,1.87,1.54,3,2
			c1.2,0.47,2.49,0.71,3.78,0.7c1.23,0.01,2.46-0.21,3.61-0.65c1.16-0.46,2.2-1.16,3.06-2.06l1.52,1.51c-1,1.11-2.25,1.96-3.65,2.49
			c-1.48,0.56-3.06,0.84-4.64,0.83"/>
		<path class="st2" d="M83.57,93.77c1.26-0.03,2.5,0.25,3.63,0.79c1.05,0.53,1.9,1.37,2.45,2.41c0.63,1.26,0.93,2.65,0.88,4.06v9.83
			h-2.28v-9.61c0.1-1.46-0.39-2.89-1.34-4c-1.01-0.96-2.37-1.46-3.76-1.37c-1.09-0.03-2.17,0.22-3.14,0.72
			c-0.89,0.48-1.61,1.21-2.07,2.1c-0.51,1.02-0.75,2.16-0.72,3.3v8.9h-2.29V86.94h2.29v11.64l-0.45-0.87
			c0.52-1.22,1.43-2.23,2.58-2.89c1.29-0.71,2.75-1.05,4.22-1"/>
		<path class="st2" d="M106.4,110.86V93.93h2.19v4.61l-0.23-0.8c0.42-1.25,1.26-2.31,2.39-3c1.27-0.71,2.71-1.06,4.16-1v2.23h-0.26
			h-0.26c-1.57-0.08-3.09,0.51-4.19,1.63c-1.08,1.29-1.63,2.95-1.52,4.63v8.64L106.4,110.86z"/>
		<path class="st2" d="M135.47,111.02c-1.54,0.02-3.06-0.36-4.4-1.11c-1.28-0.72-2.34-1.78-3.07-3.06c-1.51-2.79-1.51-6.16,0-8.95
			c0.73-1.26,1.79-2.29,3.06-3c1.35-0.75,2.87-1.13,4.41-1.1c1.56-0.03,3.1,0.35,4.47,1.1c1.27,0.7,2.33,1.74,3.06,3
			c1.48,2.8,1.48,6.15,0,8.95c-0.72,1.28-1.79,2.34-3.08,3.06C138.56,110.66,137.02,111.05,135.47,111.02 M135.47,109.02
			c1.14,0.02,2.27-0.26,3.26-0.82c0.95-0.55,1.72-1.35,2.24-2.32c1.09-2.19,1.09-4.76,0-6.95c-0.52-0.96-1.29-1.76-2.24-2.31
			c-2.01-1.09-4.44-1.09-6.45,0c-0.94,0.55-1.72,1.35-2.25,2.31c-1.12,2.18-1.12,4.77,0,6.95c0.52,0.96,1.3,1.77,2.25,2.32
			C133.25,108.75,134.35,109.04,135.47,109.02"/>
		<path class="st2" d="M167.1,93.77c1.26-0.03,2.5,0.25,3.63,0.79c1.05,0.53,1.9,1.37,2.45,2.41c0.63,1.26,0.94,2.65,0.89,4.06v9.83
			h-2.25v-9.61c0.1-1.46-0.39-2.89-1.34-4c-1.01-0.96-2.37-1.46-3.76-1.37c-1.09-0.03-2.17,0.22-3.14,0.72
			c-0.88,0.48-1.6,1.21-2.06,2.1c-0.51,1.02-0.76,2.16-0.73,3.3v8.9h-2.29V93.93h2.19v4.65l-0.35-0.87
			c0.53-1.21,1.43-2.23,2.58-2.89c1.29-0.71,2.75-1.05,4.22-1"/>
		<path class="st2" d="M191.09,90.2c-0.45,0.01-0.88-0.17-1.19-0.49c-0.32-0.3-0.49-0.72-0.49-1.16c-0.01-0.43,0.17-0.85,0.49-1.14
			c0.31-0.31,0.75-0.48,1.19-0.47c0.44-0.01,0.87,0.15,1.19,0.45c0.32,0.29,0.5,0.7,0.49,1.13c0.01,0.44-0.16,0.87-0.47,1.19
			C191.98,90.03,191.54,90.21,191.09,90.2 M189.93,93.94h2.29v16.92h-2.29V93.94z"/>
		<path class="st2" d="M215.3,111.02c-1.57,0.03-3.12-0.36-4.5-1.11c-1.3-0.72-2.37-1.78-3.11-3.06c-1.51-2.79-1.51-6.16,0-8.95
			c0.75-1.26,1.82-2.3,3.11-3c1.38-0.75,2.93-1.12,4.5-1.1c1.35-0.02,2.68,0.27,3.9,0.84c1.15,0.54,2.1,1.42,2.74,2.52l-1.71,1.16
			c-0.53-0.82-1.28-1.48-2.16-1.9c-0.87-0.42-1.83-0.63-2.8-0.62c-1.14-0.01-2.26,0.27-3.26,0.82c-0.96,0.54-1.75,1.34-2.29,2.31
			c-1.12,2.2-1.12,4.8,0,7c0.54,0.97,1.33,1.77,2.29,2.31c1,0.55,2.12,0.84,3.26,0.82c0.97,0.01,1.92-0.2,2.8-0.61
			c0.87-0.42,1.62-1.07,2.16-1.87l1.71,1.16c-0.65,1.08-1.6,1.95-2.74,2.5c-1.22,0.58-2.55,0.87-3.9,0.85"/>
		<rect x="235.83" y="86.94" class="st2" width="2.29" height="23.92"/>
		<path class="st2" d="M261.37,111.02c-1.62,0.04-3.21-0.35-4.64-1.11c-1.3-0.72-2.39-1.77-3.13-3.06
			c-0.77-1.36-1.16-2.91-1.13-4.47c-0.03-1.55,0.34-3.08,1.08-4.45c0.71-1.25,1.75-2.29,3-3c1.28-0.76,2.75-1.14,4.24-1.12
			c1.48-0.03,2.95,0.35,4.24,1.08c1.23,0.71,2.24,1.75,2.92,3c0.73,1.39,1.09,2.93,1.06,4.5c0,0.11,0,0.22,0,0.34
			c-0.01,0.12-0.01,0.25,0,0.37h-14.79v-1.68h13.5l-0.9,0.68c0.02-1.14-0.25-2.27-0.79-3.27c-0.5-0.93-1.24-1.7-2.14-2.24
			c-0.95-0.55-2.03-0.83-3.13-0.81c-1.1-0.02-2.18,0.26-3.13,0.81c-0.92,0.53-1.67,1.31-2.16,2.25c-0.53,1.03-0.79,2.17-0.77,3.32
			v0.36c-0.03,1.19,0.27,2.36,0.85,3.4c0.57,0.97,1.39,1.77,2.39,2.29c1.08,0.56,2.28,0.84,3.5,0.82c0.99,0.01,1.97-0.18,2.88-0.55
			c0.89-0.36,1.69-0.94,2.31-1.67l1.29,1.48c-0.76,0.9-1.73,1.61-2.82,2.06c-1.18,0.49-2.45,0.73-3.73,0.71"/>
		<path class="st2" d="M287.87,111.02c-1.36,0.01-2.71-0.19-4-0.6c-1.07-0.3-2.07-0.8-2.94-1.49l1-1.81
			c0.81,0.58,1.7,1.03,2.65,1.34c1.09,0.37,2.23,0.56,3.38,0.56c1.21,0.1,2.43-0.16,3.49-0.75c0.67-0.44,1.07-1.2,1.06-2
			c0.03-0.55-0.19-1.09-0.6-1.47c-0.45-0.38-0.99-0.66-1.56-0.8c-0.71-0.2-1.43-0.36-2.16-0.47c-0.79-0.13-1.59-0.28-2.37-0.45
			c-0.74-0.16-1.46-0.41-2.14-0.76c-0.63-0.32-1.17-0.79-1.57-1.37c-0.42-0.7-0.63-1.51-0.59-2.32c-0.01-0.89,0.26-1.76,0.77-2.48
			c0.58-0.78,1.37-1.38,2.27-1.73c1.17-0.45,2.41-0.66,3.66-0.63c1.11,0,2.22,0.15,3.29,0.44c0.96,0.23,1.87,0.62,2.71,1.14l-1,1.84
			c-0.74-0.51-1.55-0.88-2.42-1.11c-0.84-0.23-1.71-0.34-2.58-0.34c-1.18-0.09-2.35,0.19-3.37,0.79c-0.67,0.44-1.08,1.19-1.08,2
			c-0.03,0.57,0.19,1.12,0.6,1.52c0.46,0.4,1,0.69,1.58,0.85c0.71,0.22,1.43,0.39,2.16,0.5c0.78,0.13,1.57,0.29,2.35,0.47
			c0.74,0.17,1.47,0.42,2.16,0.74c0.63,0.3,1.18,0.76,1.58,1.33c0.43,0.67,0.64,1.45,0.6,2.24c0.02,0.92-0.27,1.82-0.82,2.56
			c-0.62,0.77-1.45,1.35-2.39,1.67c-1.22,0.43-2.5,0.63-3.79,0.6"/>
	</g>
</g>
</svg>
